<?xml version="1.0" standalone="no"?>
<!DOCTYPE svg PUBLIC "-//W3C//DTD SVG 20010904//EN"
 "http://www.w3.org/TR/2001/REC-SVG-20010904/DTD/svg10.dtd">
<svg version="1.0" xmlns="http://www.w3.org/2000/svg"
 width="1199.000000pt" height="981.000000pt" viewBox="0 0 1199.000000 981.000000"
 preserveAspectRatio="xMidYMid meet">

<g transform="translate(0.000000,981.000000) scale(0.100000,-0.100000)"
fill="#000000" stroke="none">
<path d="M5836 9484 c-3 -148 -10 -357 -16 -464 -5 -107 -12 -267 -15 -355 -3
-88 -10 -234 -16 -325 -5 -91 -13 -237 -18 -325 -7 -127 -14 -171 -31 -215
-17 -44 -21 -71 -18 -130 4 -87 -13 -132 -61 -168 -24 -18 -29 -27 -22 -40 9
-17 11 -24 11 -43 0 -5 5 -7 10 -4 6 4 8 10 5 15 -3 4 2 13 10 20 8 7 12 16 9
21 -13 22 10 6 45 -31 21 -22 35 -40 32 -40 -12 0 -4 -52 9 -60 7 -4 10 -15 7
-24 -6 -16 -33 -20 -104 -18 -18 1 -33 -1 -33 -3 0 -2 16 -21 35 -42 19 -21
35 -41 35 -44 0 -4 -42 -14 -92 -23 -138 -25 -195 -44 -271 -88 -47 -27 -78
-39 -100 -37 -18 1 -40 -1 -49 -5 -9 -4 -25 -3 -36 3 -25 13 -65 3 -58 -16 3
-8 -2 -17 -12 -20 -9 -4 -30 -20 -45 -37 -25 -28 -34 -31 -80 -29 -34 1 -55 7
-63 17 -14 20 -24 21 -24 2 0 -16 -26 -46 -41 -46 -5 0 -9 7 -9 15 0 8 -4 15
-10 15 -5 0 -10 -7 -10 -15 0 -21 -30 -48 -66 -61 l-31 -11 11 28 c6 16 14 29
19 29 4 0 5 -5 1 -12 -4 -6 -3 -8 3 -5 6 4 13 18 16 32 l4 26 -26 -23 c-34
-31 -41 -40 -34 -53 2 -5 -5 1 -16 15 -25 31 -27 52 -3 49 41 -4 56 1 44 13
-22 22 -12 31 28 25 30 -4 40 -2 40 9 0 8 5 14 10 14 6 0 10 7 10 15 0 17 36
39 50 30 6 -3 10 4 10 15 0 18 4 21 24 16 20 -5 28 0 44 27 23 40 150 117 241
148 33 12 59 25 55 30 -7 13 -30 11 -88 -6 -98 -29 -216 -53 -235 -48 -13 3
-40 46 -82 129 -34 69 -69 130 -79 137 -9 7 -34 39 -55 72 -21 33 -42 62 -47
64 -11 4 -358 708 -445 901 -11 25 -36 83 -56 130 -51 123 -139 297 -144 283
-2 -7 12 -52 31 -100 20 -49 45 -117 55 -153 11 -36 52 -157 90 -270 39 -112
71 -213 71 -225 0 -12 4 -25 9 -30 5 -6 16 -33 25 -62 14 -42 30 -63 90 -117
49 -43 82 -83 99 -118 39 -80 88 -207 89 -231 1 -12 16 -62 35 -110 19 -48 41
-110 49 -138 9 -28 31 -85 50 -126 24 -54 31 -79 24 -88 -13 -16 2 -29 59 -48
l44 -14 -72 -37 c-40 -20 -119 -67 -177 -104 -58 -37 -124 -79 -147 -93 -23
-14 -98 -66 -167 -115 -69 -49 -136 -94 -150 -100 -14 -6 -57 -41 -97 -78
l-72 -67 -53 25 c-52 25 -214 146 -333 250 -72 63 -82 69 -89 57 -4 -5 15 -36
41 -68 27 -32 70 -87 98 -123 27 -36 52 -67 55 -70 13 -12 78 -100 113 -151
36 -55 49 -109 25 -109 -7 0 -32 -18 -56 -40 -24 -22 -45 -40 -48 -40 -11 0
-340 273 -452 376 -18 17 -48 39 -65 49 l-32 19 29 -35 c15 -18 67 -75 115
-124 102 -108 245 -272 278 -320 27 -40 28 -56 8 -95 -9 -17 -11 -30 -5 -30 5
0 10 4 10 9 0 6 16 22 35 37 32 24 38 26 60 14 43 -23 38 -39 -28 -109 -35
-37 -78 -88 -97 -114 -35 -50 -50 -56 -70 -32 -19 23 -96 65 -119 65 -45 0
-114 54 -105 82 7 23 -7 41 -63 80 -43 29 -45 29 -78 14 -40 -19 -50 -20 -67
-3 -7 7 -34 29 -59 48 -25 19 -73 54 -105 78 -32 25 -84 63 -114 85 -30 22
-71 54 -90 71 -19 18 -55 40 -80 49 -25 10 -95 51 -157 91 -129 85 -263 161
-263 148 1 -8 174 -130 263 -184 33 -21 47 -36 47 -52 0 -24 65 -77 95 -77 22
0 44 -13 123 -71 37 -28 74 -54 82 -59 9 -5 13 -20 12 -41 -2 -27 5 -40 48
-81 32 -30 59 -48 74 -48 31 0 66 -43 66 -81 0 -24 4 -29 23 -29 48 0 124 -31
188 -77 37 -27 98 -70 137 -98 75 -52 84 -68 53 -84 -21 -12 -65 -84 -75 -124
-5 -22 -10 -25 -29 -18 -54 21 -446 215 -587 291 -85 46 -180 96 -210 113
-164 88 -207 112 -231 128 -48 33 -241 140 -245 136 -3 -2 39 -35 92 -73 52
-38 108 -78 123 -89 62 -45 239 -162 284 -189 27 -15 87 -57 135 -93 48 -36
109 -80 137 -98 27 -18 69 -51 93 -74 24 -23 65 -52 91 -65 78 -37 199 -116
205 -133 4 -9 -6 -36 -23 -62 -16 -25 -48 -83 -70 -127 -23 -45 -49 -85 -59
-89 -9 -5 -39 -11 -67 -15 -39 -6 -58 -3 -87 11 -54 27 -149 62 -154 56 -5 -5
32 -30 105 -70 130 -74 141 -82 141 -108 0 -14 9 -34 20 -44 11 -10 20 -24 20
-32 0 -7 4 -13 8 -13 4 0 23 -13 42 -29 32 -27 34 -31 22 -51 -12 -20 -11 -20
8 -10 18 9 20 8 20 -15 0 -56 35 -18 70 78 12 31 31 70 44 85 12 15 30 44 41
65 22 43 50 67 77 67 11 0 15 5 12 15 -4 8 -1 15 7 15 7 0 10 3 6 6 -9 9 21
36 33 29 5 -3 10 -1 10 6 0 7 3 9 6 6 4 -4 -1 -18 -10 -31 -9 -14 -16 -32 -16
-39 0 -8 -7 -20 -15 -27 -9 -7 -15 -20 -14 -29 1 -9 -1 -33 -6 -54 -4 -21 -9
-57 -10 -80 -2 -23 -17 -91 -35 -152 -17 -60 -38 -139 -46 -175 -7 -36 -18
-83 -24 -105 -12 -50 -13 -88 -1 -81 4 3 19 34 31 68 31 82 138 298 149 298 4
0 15 17 24 38 9 20 26 60 38 87 12 28 23 58 24 68 1 10 12 28 24 40 11 13 23
37 27 54 10 50 77 58 161 19 82 -39 279 -153 386 -224 53 -36 100 -63 103 -59
8 7 -56 70 -141 139 -267 215 -345 283 -345 303 0 21 130 135 154 135 12 0 35
-8 52 -17 36 -21 199 -146 317 -245 44 -37 82 -66 84 -64 11 10 -56 99 -136
180 -50 51 -91 98 -91 104 0 6 -11 22 -25 36 -14 14 -25 36 -25 49 0 32 -20
87 -31 87 -21 0 -6 26 39 68 27 26 47 54 47 66 0 13 11 26 29 34 32 16 33 16
181 -105 113 -93 130 -95 43 -7 -42 44 -85 98 -97 121 -12 23 -30 47 -41 53
-11 6 -20 17 -20 25 0 19 2 19 43 -5 31 -19 37 -19 69 -6 19 8 40 22 47 30 11
13 26 3 109 -71 214 -190 221 -177 17 31 -85 87 -155 164 -155 172 0 8 -7 29
-16 46 -9 17 -18 43 -20 57 -8 49 -14 106 -15 146 -1 22 -8 49 -15 61 -14 20
-9 24 93 95 164 113 394 240 505 280 34 11 39 11 59 -7 35 -31 88 -122 197
-339 28 -55 62 -117 77 -138 26 -39 97 -183 109 -224 9 -27 32 -47 40 -34 4 5
0 29 -8 53 -8 24 -33 102 -55 173 -21 72 -56 177 -76 235 -104 292 -107 385
-15 410 22 6 62 20 88 32 61 26 231 75 290 83 86 12 113 24 107 48 -2 12 -2
17 1 10 3 -7 18 1 40 23 20 19 43 34 52 34 10 0 27 3 38 6 18 5 22 0 28 -32 5
-25 4 -39 -5 -44 -7 -5 -10 -19 -6 -39 5 -23 3 -31 -8 -31 -21 0 -33 -29 -36
-87 -2 -35 2 -58 12 -70 40 -48 68 -165 85 -358 8 -88 20 -187 28 -220 13 -59
14 -60 25 -31 6 15 16 94 21 175 16 241 30 331 56 373 31 48 46 184 22 193
-10 4 -13 15 -10 35 l4 29 138 -6 138 -6 4 29 c2 24 7 29 31 29 15 -1 27 -1
28 0 0 0 2 27 5 60 2 33 9 69 15 80 7 15 6 30 -5 56 l-15 36 -108 11 c-59 7
-122 12 -139 12 -36 0 -52 31 -28 51 8 6 20 23 27 38 11 23 20 27 85 35 41 5
72 14 72 21 0 6 -15 19 -32 30 -18 10 -37 24 -41 32 -4 7 -14 13 -21 13 -8 0
-16 7 -20 15 -3 8 -12 15 -21 15 -8 0 -15 7 -15 15 0 7 -6 18 -14 22 -8 4 -19
35 -26 68 -15 72 -21 85 -30 59 -6 -17 -9 -15 -27 14 -12 20 -24 29 -27 23 -4
-6 -4 -15 -1 -21 3 -5 -1 -10 -9 -10 -12 0 -16 10 -16 36 0 26 -8 43 -29 65
-26 25 -28 33 -21 59 5 17 9 33 9 35 1 3 1 8 2 13 0 4 0 26 -1 50 -1 39 12 57
23 30 4 -10 6 -10 6 0 1 7 -3 22 -9 32 -12 23 -2 59 11 38 7 -11 11 -10 19 2
6 11 4 17 -8 24 -27 14 -42 38 -42 67 0 15 -9 46 -20 70 -22 50 -25 69 -9 69
5 0 7 -4 4 -10 -3 -6 1 -7 9 -4 9 3 16 10 16 15 0 5 7 9 15 9 8 0 15 4 15 10
0 19 -32 90 -41 90 -5 0 -9 6 -9 14 0 8 -5 16 -11 18 -17 6 -1 48 17 48 13 0
14 28 10 198 -3 108 -7 215 -10 237 -3 22 -7 103 -11 180 -3 77 -10 168 -16
203 -5 35 -13 161 -18 281 -12 320 -27 314 -35 -15z m86 -1215 c10 -7 10 -9
-2 -9 -23 0 -35 13 -34 35 2 37 6 40 14 11 5 -16 15 -33 22 -37z m-117 -899
c3 -5 -1 -10 -10 -10 -9 0 -13 5 -10 10 3 6 8 10 10 10 2 0 7 -4 10 -10z m15
-534 c0 -3 -4 -8 -10 -11 -5 -3 -10 -1 -10 4 0 6 5 11 10 11 6 0 10 -2 10 -4z
m-1350 -76 c9 -16 8 -18 -5 -14 -8 4 -15 12 -15 20 0 20 7 17 20 -6z m-32 -24
c12 -4 22 -14 22 -23 0 -12 3 -13 15 -3 8 6 22 10 32 7 15 -3 13 -6 -8 -15
-15 -6 -29 -17 -32 -24 -4 -10 -9 -9 -20 5 -22 26 -29 21 -21 -18 4 -23 2 -35
-5 -35 -6 0 -11 6 -12 13 0 16 -21 -32 -24 -56 -2 -17 -21 -36 -37 -37 -4 0
-14 7 -23 16 -8 9 -22 13 -30 10 -8 -3 -15 -1 -15 4 0 6 -5 10 -11 10 -6 0 -9
-9 -6 -20 3 -11 0 -21 -6 -21 -7 -1 -18 -2 -26 -3 -8 0 -16 -7 -19 -15 -3 -8
0 -11 7 -7 17 11 13 -10 -5 -24 -12 -11 -15 -11 -12 1 2 8 -3 14 -9 13 -7 -1
-22 -2 -34 -2 -12 -1 -17 -6 -13 -13 4 -7 1 -10 -6 -7 -33 11 -3 78 35 78 22
0 19 18 -4 22 -15 2 -17 7 -9 28 l9 25 20 -24 c16 -19 20 -20 25 -7 3 8 2 20
-2 27 -4 7 -2 10 7 7 9 -3 19 7 28 26 7 17 15 25 18 19 7 -20 23 -15 23 7 0
13 5 18 15 14 10 -4 15 0 15 13 0 16 7 20 36 21 20 1 39 4 42 7 3 3 8 1 11 -4
3 -4 16 -11 29 -15z m-588 -441 c-41 -43 -52 -44 -39 -6 7 18 21 33 37 39 39
14 40 6 2 -33z m210 -210 c0 -8 11 -22 25 -33 14 -11 25 -23 25 -28 0 -4 12
-25 26 -46 26 -37 27 -65 2 -40 -7 7 -19 12 -28 12 -9 0 -40 20 -69 45 -29 25
-60 49 -69 54 -16 9 -15 11 3 25 11 8 29 21 40 29 21 16 45 6 45 -18z m-111
-196 c54 -53 58 -66 25 -83 -10 -6 -37 -21 -58 -35 -35 -21 -44 -22 -71 -12
-17 6 -43 11 -58 11 -15 0 -27 2 -27 5 0 31 101 165 124 165 7 0 37 -23 65
-51z m-235 -194 c16 -12 17 -17 6 -29 -10 -12 -9 -18 2 -30 38 -43 40 -47 28
-61 -6 -8 -9 -18 -6 -24 9 -14 -4 -41 -21 -41 -12 0 -12 3 2 16 9 9 13 19 10
23 -7 7 -45 -36 -45 -50 0 -5 5 -9 10 -9 6 0 10 -11 10 -24 0 -18 -11 -29 -47
-48 -29 -15 -48 -31 -48 -42 0 -18 -21 -36 -44 -36 -9 0 -12 8 -9 25 6 27 -5
41 -22 30 -8 -5 -8 -11 0 -20 7 -8 7 -16 2 -19 -10 -6 -22 16 -22 40 0 8 -9
27 -20 42 -17 23 -18 33 -10 62 7 23 7 36 0 38 -5 2 1 18 15 36 14 18 25 45
25 59 0 14 5 29 10 32 6 3 10 1 10 -5 0 -7 6 -10 14 -7 7 3 18 1 24 -5 8 -8
17 -4 32 15 12 15 30 27 41 27 10 0 19 5 19 10 0 14 11 12 34 -5z m66 -75 c0
-5 -4 -10 -10 -10 -5 0 -10 5 -10 10 0 6 5 10 10 10 6 0 10 -4 10 -10z m-449
-433 c-10 -9 -11 -8 -5 6 3 10 9 15 12 12 3 -3 0 -11 -7 -18z"/>
<path d="M4315 6600 c3 -5 10 -10 16 -10 5 0 9 5 9 10 0 6 -7 10 -16 10 -8 0
-12 -4 -9 -10z"/>
<path d="M3645 5440 c-21 -23 -4 -27 19 -4 18 17 20 24 8 24 -5 0 -17 -9 -27
-20z"/>
<path d="M3580 5400 c0 -5 4 -10 9 -10 6 0 13 5 16 10 3 6 -1 10 -9 10 -9 0
-16 -4 -16 -10z"/>
<path d="M7635 8875 c-5 -11 -28 -70 -51 -132 -41 -106 -101 -244 -126 -288
-33 -58 -98 -198 -118 -255 -13 -36 -29 -74 -36 -85 -22 -36 -132 -279 -153
-339 -11 -33 -30 -70 -42 -83 -21 -22 -45 -65 -160 -288 -28 -55 -57 -104 -63
-108 -16 -11 -162 1 -221 18 -55 17 -119 20 -110 5 3 -5 22 -12 43 -16 85 -16
185 -77 238 -146 7 -8 23 -24 37 -34 13 -11 28 -35 32 -53 l7 -32 -39 19 c-41
21 -158 56 -236 71 -45 8 -49 7 -57 -13 -4 -11 -5 -25 -3 -30 3 -4 1 -11 -6
-15 -7 -5 -1 -20 17 -46 16 -24 27 -53 27 -72 0 -38 -3 -40 -21 -15 -10 13
-15 14 -25 5 -9 -9 -6 -19 12 -45 13 -18 23 -40 21 -48 -2 -10 10 -20 33 -29
24 -8 35 -19 35 -32 0 -11 5 -28 12 -38 9 -15 7 -43 -11 -138 -13 -65 -26
-125 -28 -133 -5 -16 21 12 32 34 3 8 7 7 11 -1 3 -7 12 -13 20 -13 9 0 12 -5
8 -12 -5 -7 -2 -9 8 -5 12 4 14 0 10 -16 -11 -42 21 -2 58 72 19 39 41 71 47
71 7 0 30 16 52 35 58 53 100 49 253 -20 126 -57 161 -67 138 -40 -7 9 -10 19
-6 23 4 4 13 -1 20 -11 20 -27 29 -20 24 18 -2 19 0 35 4 35 5 0 4 10 -3 21
-8 16 -13 18 -19 9 -6 -9 -9 -9 -16 1 -6 10 -10 7 -15 -11 -5 -15 -6 -6 -3 24
3 41 0 54 -18 74 -22 23 -23 24 -4 38 13 9 20 27 20 56 1 52 23 61 68 28 29
-22 30 -22 18 -1 -6 12 -15 21 -20 21 -6 0 -10 5 -10 10 0 6 8 10 18 10 16 1
16 1 -1 11 -9 5 -21 8 -26 5 -5 -4 -7 2 -4 12 3 13 -8 26 -41 47 -25 16 -42
32 -36 35 5 3 -27 26 -70 50 -107 60 -109 21 29 525 48 178 156 463 187 494
33 33 55 83 83 192 12 48 42 137 67 199 69 173 126 348 121 373 -3 21 -4 21
-12 2z m-1017 -1833 c6 -18 -15 -14 -22 4 -4 10 -1 14 6 12 6 -2 14 -10 16
-16z"/>
<path d="M8930 8567 c-41 -50 -97 -120 -123 -156 -26 -36 -53 -73 -60 -81 -7
-8 -37 -49 -67 -90 -79 -108 -157 -207 -215 -270 -27 -31 -89 -112 -138 -180
-48 -69 -130 -181 -182 -250 -53 -69 -139 -188 -192 -265 -53 -77 -113 -160
-134 -185 -64 -78 -85 -140 -31 -92 32 28 142 153 184 210 47 63 114 127 174
164 24 15 41 33 39 40 -13 38 191 321 289 399 30 24 58 53 62 64 9 31 110 209
177 314 33 51 65 108 70 125 6 17 55 90 108 161 92 125 124 173 117 180 -2 1
-37 -38 -78 -88z"/>
<path d="M2716 8540 c15 -30 104 -157 180 -262 44 -58 110 -148 148 -200 37
-51 102 -151 144 -222 60 -101 93 -144 147 -195 145 -136 228 -230 249 -283
14 -35 30 -57 48 -65 34 -17 120 -93 178 -157 25 -28 75 -82 111 -121 36 -39
68 -77 71 -85 3 -8 9 -12 13 -8 19 18 -17 69 -328 473 -152 196 -276 345 -362
435 -71 73 -194 221 -304 365 -41 53 -91 115 -110 138 -53 61 -195 205 -185
187z"/>
<path d="M5972 7920 c0 -14 2 -19 5 -12 2 6 2 18 0 25 -3 6 -5 1 -5 -13z"/>
<path d="M6010 7806 c0 -8 5 -18 10 -21 6 -3 10 1 10 9 0 8 -4 18 -10 21 -5 3
-10 -1 -10 -9z"/>
<path d="M6670 7580 c0 -5 5 -10 10 -10 6 0 10 5 10 10 0 6 -4 10 -10 10 -5 0
-10 -4 -10 -10z"/>
<path d="M7336 7581 c-4 -7 -5 -15 -2 -18 9 -9 19 4 14 18 -4 11 -6 11 -12 0z"/>
<path d="M6620 7550 c0 -5 7 -10 15 -10 8 0 15 5 15 10 0 6 -7 10 -15 10 -8 0
-15 -4 -15 -10z"/>
<path d="M5054 7436 c1 -41 4 -46 24 -46 29 0 28 26 -2 63 l-23 29 1 -46z"/>
<path d="M5680 7415 c-23 -25 -23 -25 -2 -25 12 0 23 8 27 21 10 31 1 32 -25
4z"/>
<path d="M4540 7390 c0 -32 14 -55 29 -46 15 10 14 17 -9 46 l-20 25 0 -25z"/>
<path d="M7291 7340 c-35 -56 -38 -73 -15 -68 14 3 59 106 50 115 -2 2 -18
-19 -35 -47z"/>
<path d="M10055 7239 c-76 -44 -178 -124 -253 -196 l-47 -46 44 23 c44 22 310
219 332 246 19 23 -2 16 -76 -27z"/>
<path d="M1640 7090 c25 -22 58 -47 73 -56 15 -8 58 -34 95 -58 98 -63 206
-107 187 -77 -13 22 -324 205 -380 224 -11 4 0 -11 25 -33z"/>
<path d="M6515 7120 c3 -5 8 -10 11 -10 2 0 4 5 4 10 0 6 -5 10 -11 10 -5 0
-7 -4 -4 -10z"/>
<path d="M6530 7031 c0 -6 4 -13 10 -16 6 -3 7 1 4 9 -7 18 -14 21 -14 7z"/>
<path d="M4870 7014 c0 -8 5 -12 10 -9 6 4 8 11 5 16 -9 14 -15 11 -15 -7z"/>
<path d="M6500 7017 c0 -10 -4 -16 -9 -13 -5 3 -12 -2 -16 -11 -4 -12 1 -24
17 -37 22 -18 23 -18 27 0 2 11 7 22 13 25 5 3 0 17 -11 30 -17 21 -20 21 -21
6z m10 -31 c0 -3 -4 -8 -10 -11 -5 -3 -10 -1 -10 4 0 6 5 11 10 11 6 0 10 -2
10 -4z"/>
<path d="M6560 7020 c0 -5 5 -10 10 -10 6 0 10 5 10 10 0 6 -4 10 -10 10 -5 0
-10 -4 -10 -10z"/>
<path d="M4940 6990 c0 -5 5 -10 11 -10 5 0 7 5 4 10 -3 6 -8 10 -11 10 -2 0
-4 -4 -4 -10z"/>
<path d="M8307 6958 c-39 -51 -218 -229 -272 -271 -26 -20 -60 -40 -74 -43
-14 -3 -33 -9 -41 -15 -34 -21 -42 -19 -86 20 -40 35 -134 100 -236 164 -28
17 -28 17 -29 -10 -1 -16 -1 -32 0 -36 1 -4 -6 -10 -14 -13 -13 -5 -13 -9 -3
-22 11 -13 10 -14 -10 -8 -23 8 -23 7 -6 -13 13 -15 20 -17 26 -8 5 8 8 5 8
-9 0 -12 7 -24 15 -27 10 -4 13 -18 11 -44 -2 -21 0 -45 4 -53 4 -8 1 -25 -5
-38 -11 -20 -14 -21 -25 -7 -18 22 -33 18 -27 -7 4 -14 0 -26 -11 -34 -16 -12
-15 -13 6 -14 17 0 22 -6 22 -26 0 -19 -4 -25 -15 -20 -30 11 -15 -23 25 -57
22 -19 40 -37 40 -41 0 -5 -8 -20 -19 -34 -21 -30 -32 -74 -32 -124 0 -30 -18
-87 -40 -130 -5 -10 -9 -26 -9 -36 0 -10 -47 -69 -105 -132 -58 -63 -105 -119
-105 -124 0 -9 8 -3 84 59 28 22 59 41 70 42 12 2 50 6 86 9 41 4 78 15 101
30 20 12 39 20 42 17 15 -14 -31 -78 -148 -203 -160 -172 -146 -171 36 0 122
115 149 134 149 107 0 -8 13 -20 29 -25 16 -6 32 -19 35 -30 4 -10 24 -27 46
-37 22 -10 40 -24 40 -32 0 -7 4 -13 9 -13 5 0 11 -8 14 -19 3 -12 -19 -51
-64 -114 -38 -53 -69 -99 -69 -102 0 -9 -83 -117 -144 -189 l-50 -59 34 18
c37 19 58 35 155 120 33 29 105 88 159 131 l100 77 79 -83 78 -83 -23 -22
c-13 -11 -68 -57 -123 -100 -201 -160 -392 -331 -381 -342 2 -3 46 25 98 61
51 36 122 86 158 110 90 61 380 210 389 200 58 -71 90 -117 112 -166 16 -32
33 -58 38 -58 5 0 11 -10 13 -22 4 -29 47 -39 44 -11 0 10 -7 22 -15 27 -11 7
-11 10 0 16 10 7 10 12 1 23 -9 11 -8 19 8 37 11 13 20 24 20 26 0 4 -47 76
-60 91 -5 7 -10 17 -10 22 0 5 -13 24 -29 42 -16 17 -37 46 -46 63 -17 31 -54
56 -84 56 -13 0 -14 2 -2 9 11 7 6 14 -22 32 -20 13 -37 30 -37 37 0 9 -7 11
-20 7 -17 -6 -20 -2 -20 28 0 19 -6 40 -14 46 -17 14 -11 70 10 113 17 33 48
31 105 -6 30 -20 44 -25 52 -17 19 19 40 13 34 -10 -4 -15 -2 -19 8 -15 15 5
31 -10 37 -34 2 -8 15 -20 31 -27 28 -13 39 -53 13 -53 -9 0 -12 -7 -9 -20 3
-11 11 -20 19 -20 23 0 25 -19 5 -39 -19 -19 -19 -20 0 -37 17 -16 19 -16 19
-1 0 10 4 17 9 17 5 0 7 -9 4 -19 -3 -13 3 -23 18 -31 12 -7 32 -22 43 -32
l21 -20 -22 7 c-27 8 -28 4 -8 -35 8 -16 12 -37 8 -46 -5 -13 -3 -16 10 -11
12 4 25 -5 44 -31 16 -20 33 -41 40 -47 6 -5 34 -53 62 -105 49 -93 83 -183
97 -255 3 -19 10 -33 14 -30 4 3 15 -7 24 -21 10 -13 28 -29 41 -34 17 -7 22
-14 18 -29 -3 -12 -9 -21 -14 -21 -5 0 -9 -7 -9 -15 0 -10 10 -15 30 -15 34 0
36 -9 15 -50 -9 -18 -11 -31 -5 -35 6 -3 10 0 10 7 0 10 2 10 9 -1 10 -15 3
-51 -10 -51 -5 0 -9 -9 -9 -20 0 -11 7 -20 15 -20 8 0 15 -7 15 -16 0 -9 9
-18 21 -21 17 -5 20 -11 16 -33 -3 -15 -1 -32 4 -37 7 -7 2 -17 -15 -31 -29
-22 -34 -34 -11 -26 8 4 15 1 15 -5 0 -6 -8 -11 -17 -11 -15 -1 -14 -4 5 -20
21 -18 22 -21 9 -35 -9 -8 -20 -15 -26 -15 -8 0 -4 -68 5 -79 2 -2 -2 -13 -7
-24 -8 -14 -8 -22 1 -27 11 -7 14 -46 8 -110 -4 -42 -31 -95 -53 -103 -10 -5
-15 -20 -15 -49 0 -32 -5 -46 -20 -56 -16 -10 -18 -16 -10 -38 15 -37 13 -114
-2 -114 -33 1 -61 28 -65 61 -5 52 -10 59 -43 59 -20 0 -33 6 -37 18 -4 9 -12
21 -20 25 -7 4 -13 15 -13 22 0 8 -4 15 -10 15 -5 0 -10 8 -10 18 0 9 -13 43
-29 74 l-29 57 24 22 c18 17 22 28 17 53 -3 17 -12 38 -19 47 -8 9 -14 38 -14
65 0 27 -6 58 -14 69 -7 11 -23 63 -35 115 -24 104 -76 213 -103 218 -14 3
-18 -3 -18 -27 0 -24 -4 -31 -19 -31 -10 0 -25 7 -32 16 -21 25 -116 13 -143
-19 -36 -42 -70 -55 -180 -71 -175 -26 -163 -35 48 -36 179 0 190 -1 235 -24
25 -13 65 -32 88 -43 31 -13 47 -29 62 -60 11 -24 18 -49 15 -58 -4 -8 -2 -21
4 -28 5 -6 12 -49 15 -94 5 -82 5 -83 -24 -108 -30 -24 -30 -25 -16 -67 8 -23
14 -56 13 -73 -2 -16 4 -35 11 -40 19 -14 29 -90 14 -100 -7 -4 -24 1 -38 10
-29 19 -158 34 -213 24 -19 -4 -27 -7 -18 -8 26 -2 98 -32 98 -41 0 -4 -14
-13 -31 -20 -25 -11 -32 -11 -39 -1 -5 9 -55 14 -167 18 -143 5 -262 -1 -250
-13 2 -2 65 -9 138 -14 74 -5 173 -16 219 -25 47 -8 115 -15 152 -15 85 0 161
-16 190 -40 l23 -19 -40 -17 c-25 -10 -80 -18 -150 -22 -134 -6 -117 -14 83
-37 148 -18 152 -19 152 -42 0 -13 5 -32 12 -42 9 -15 9 -47 -3 -145 -8 -69
-12 -126 -8 -126 16 0 30 31 43 96 8 38 22 104 31 147 l16 77 56 0 55 0 -7
-47 c-4 -26 -13 -60 -21 -75 -16 -31 -19 -78 -4 -78 6 0 10 6 10 14 0 7 6 19
14 25 11 10 16 8 20 -7 9 -27 12 -219 4 -227 -6 -7 -80 1 -263 26 -38 5 -86
12 -105 14 -19 2 -66 9 -104 14 -61 9 -71 8 -82 -7 -8 -9 -14 -20 -14 -24 0
-4 -7 -5 -15 -2 -8 4 -15 2 -15 -2 0 -15 71 -43 175 -69 81 -21 184 -50 313
-90 19 -7 14 -19 -19 -51 -17 -16 -45 -43 -63 -60 -33 -34 -76 -60 -76 -47 0
4 5 28 11 52 17 74 2 81 -31 15 -16 -32 -37 -70 -48 -83 l-19 -24 -99 28 c-54
16 -127 39 -162 52 -34 12 -79 23 -100 22 -33 0 -23 -7 108 -73 134 -67 174
-88 208 -109 15 -10 1 -35 -92 -166 -77 -109 -98 -165 -92 -243 5 -70 -4 -102
-41 -136 -20 -19 -31 -22 -42 -14 -9 5 -70 38 -136 73 -66 34 -137 73 -157 86
-40 25 -84 49 -243 133 -55 29 -107 59 -115 65 -18 15 -96 55 -107 55 -15 0
92 -91 142 -121 28 -16 77 -50 110 -74 33 -25 91 -64 129 -86 38 -23 83 -51
100 -63 78 -54 194 -137 219 -158 l27 -23 -101 -110 c-56 -60 -107 -122 -113
-136 l-11 -27 -100 79 c-117 92 -179 132 -203 127 -11 -2 3 -19 48 -58 76 -64
210 -197 210 -208 0 -4 -48 -50 -106 -102 -71 -64 -107 -104 -111 -122 -7 -36
-35 -60 -72 -62 -17 -1 -36 -7 -43 -14 -6 -6 -15 -12 -20 -12 -14 0 -178 -122
-178 -132 0 -7 5 -6 14 1 10 9 17 7 27 -6 8 -9 9 -14 2 -10 -6 4 -14 3 -18 -2
-6 -11 29 -33 39 -24 3 3 6 1 6 -5 0 -24 -21 -22 -44 5 -20 23 -26 25 -39 15
-10 -9 -17 -10 -22 -2 -10 16 -23 12 -36 -12 -10 -18 -9 -20 5 -15 11 4 15 3
10 -4 -4 -6 0 -16 7 -21 10 -7 7 -7 -8 -3 -18 5 -23 2 -23 -12 0 -18 6 -19 69
-12 74 8 173 50 264 112 26 17 68 45 95 61 64 41 123 87 215 173 44 41 88 73
99 73 25 0 102 -54 268 -188 69 -56 147 -113 174 -128 47 -26 48 -26 41 -5 -4
13 -1 28 5 36 10 12 4 25 -32 67 -24 29 -54 74 -67 101 -13 26 -28 47 -34 47
-5 0 -6 7 -3 16 9 23 -20 64 -44 64 -11 0 -20 -4 -20 -10 0 -6 -24 -9 -57 -7
-50 2 -66 8 -115 45 -31 23 -62 42 -68 42 -5 0 -10 4 -10 8 0 10 145 161 181
188 14 10 33 31 43 47 10 15 25 27 32 27 19 0 17 -14 -5 -34 -10 -10 -38 -45
-62 -79 l-43 -62 52 43 c29 24 68 62 86 84 l35 40 102 -59 c57 -32 116 -65
131 -73 75 -41 178 -106 178 -112 0 -5 4 -8 9 -8 4 0 40 -18 80 -39 39 -22 71
-36 71 -33 -1 10 -142 120 -215 167 -110 73 -221 164 -249 204 l-28 40 67 87
c76 97 216 322 251 401 13 28 28 54 33 58 16 9 122 -47 133 -70 12 -26 85 -54
248 -95 69 -17 152 -40 185 -51 169 -53 366 -123 434 -153 42 -19 112 -47 156
-61 44 -15 157 -56 250 -92 169 -65 303 -109 311 -100 5 5 -210 107 -225 107
-6 0 -41 16 -80 35 -38 19 -72 35 -74 35 -3 0 -97 45 -209 99 -112 55 -233
108 -269 119 -83 26 -439 208 -455 233 -3 5 -12 9 -21 9 -9 0 -30 10 -47 23
-17 13 -44 30 -61 39 -93 48 -151 81 -157 91 -12 18 -10 45 6 80 30 71 36 89
36 110 0 42 15 45 113 25 51 -11 119 -21 152 -23 83 -5 202 -26 460 -80 81
-17 141 -22 150 -13 4 3 -38 20 -92 38 -54 18 -136 47 -183 65 -158 60 -234
83 -385 115 -55 12 -117 26 -139 31 -42 12 -42 10 -11 104 21 63 31 81 43 78
6 -1 23 -5 39 -7 101 -19 123 -25 139 -41 29 -29 75 -43 205 -64 169 -27 309
-40 401 -39 53 1 84 -3 100 -14 25 -16 112 -31 122 -21 3 4 23 13 44 20 44 16
80 12 292 -27 168 -31 466 -81 515 -87 17 -1 -8 10 -55 25 -135 46 -189 61
-290 82 -145 31 -290 67 -339 85 -27 9 -72 15 -116 13 -39 -1 -77 2 -83 6 -23
14 -404 91 -604 122 -87 13 -120 15 -130 6 -15 -12 -195 -5 -203 9 -3 4 0 20
6 36 20 50 27 68 33 86 5 15 12 17 35 12 21 -4 35 0 57 18 25 21 44 26 129 32
106 8 137 21 128 56 -7 24 -19 25 -27 2 -5 -11 -10 -13 -14 -7 -11 16 -44 27
-77 25 -16 0 -39 6 -49 14 -19 15 -19 15 -1 29 12 8 16 19 12 31 -5 11 -11 14
-20 8 -22 -16 -67 -15 -84 3 -16 15 -16 17 2 30 15 11 16 16 6 28 -7 8 -10 20
-6 26 9 15 45 12 45 -4 0 -8 3 -23 6 -33 4 -13 3 -15 -4 -4 -12 17 -23 0 -12
-19 8 -13 12 -13 26 2 16 16 18 16 30 0 7 -9 16 -13 20 -9 5 4 2 12 -6 17 -21
13 0 33 34 33 16 0 23 4 19 11 -4 6 0 5 9 -2 9 -7 19 -9 22 -4 3 5 20 9 38 8
35 -2 34 0 23 -68 -2 -16 1 -28 7 -28 6 0 8 11 5 26 -4 24 -2 26 24 20 16 -3
29 -1 29 4 0 6 5 10 11 10 5 0 7 -4 4 -10 -3 -6 1 -7 9 -4 12 5 16 0 16 -20 0
-31 4 -32 39 -7 27 19 27 19 39 0 7 -11 10 -24 8 -28 -6 -9 69 -5 85 4 5 4 9
2 9 -4 0 -5 -5 -11 -10 -13 -6 -2 6 -8 25 -14 30 -9 35 -9 35 5 0 11 7 8 23
-11 25 -29 49 -30 93 -7 16 8 36 7 85 -8 60 -17 121 -18 984 -19 506 0 929 3
939 6 22 8 -23 16 -404 71 -421 62 -735 83 -774 54 -29 -22 -76 -20 -76 3 0
23 -98 46 -162 40 -124 -14 -808 65 -933 107 -38 13 -94 29 -122 35 -99 22
-69 31 177 50 74 6 182 15 240 20 142 14 483 30 601 29 96 -1 166 7 174 20 2
4 -58 13 -133 20 -145 13 -169 16 -297 31 -44 5 -132 14 -195 20 -63 6 -189
20 -280 30 -91 11 -237 27 -325 35 -88 9 -178 20 -200 24 -34 7 -37 9 -20 16
11 5 40 30 66 57 45 47 45 47 150 63 266 40 392 56 488 61 77 4 115 11 145 26
47 24 57 26 211 33 66 3 131 7 145 10 14 2 117 9 230 15 159 8 401 30 450 41
13 3 -81 20 -125 22 -27 2 -131 -2 -230 -8 -99 -7 -259 -13 -355 -14 -291 -4
-327 -7 -357 -26 -16 -10 -32 -24 -36 -32 -4 -7 -18 -13 -29 -13 -12 0 -47 -4
-77 -10 -96 -17 -403 -45 -481 -44 -41 0 -115 7 -164 15 l-90 15 -12 48 c-12
46 -12 47 13 57 13 5 28 9 32 9 15 0 417 162 506 204 50 24 134 62 188 85 53
24 97 46 97 48 0 13 -102 -10 -252 -58 -90 -28 -172 -54 -183 -56 -11 -3 -48
-14 -83 -24 -58 -17 -92 -17 -92 1 0 4 35 19 78 34 42 15 124 46 182 68 58 23
119 45 135 49 17 4 62 20 100 35 39 14 90 31 115 35 24 5 65 20 90 33 42 22
128 52 230 81 25 8 90 29 145 49 55 19 127 38 160 42 34 3 76 16 100 29 22 13
90 44 150 70 61 25 119 50 130 55 11 5 70 29 130 54 415 167 702 296 673 303
-9 2 -56 -10 -105 -27 -48 -18 -133 -47 -188 -65 -55 -18 -206 -70 -335 -115
-129 -45 -311 -108 -405 -140 -93 -33 -262 -91 -375 -130 -364 -127 -439 -150
-508 -150 -50 0 -86 -9 -165 -39 -214 -82 -365 -118 -342 -81 4 6 2 17 -4 24
-10 12 -23 10 -78 -9 -57 -20 -69 -22 -87 -10 -12 7 -36 16 -55 20 l-34 7 84
40 c46 21 106 44 132 50 62 13 56 33 -9 34 -84 0 -102 4 -119 20 -12 12 -25
15 -53 10 -20 -4 -64 -8 -97 -9 -56 -2 -60 0 -63 21 -2 13 -10 26 -18 29 -8 3
-14 11 -14 18 0 7 -16 36 -35 65 -19 29 -35 55 -35 59 0 13 85 77 150 113 36
20 74 46 85 58 l20 22 -35 -15 c-19 -8 -66 -31 -105 -50 -59 -30 -72 -33 -81
-21 -9 11 -21 12 -57 5 l-45 -8 -52 91 c-28 50 -67 113 -85 140 -29 42 -32 51
-19 63 16 16 19 48 4 38 -5 -3 -10 -4 -10 -1 0 3 26 25 58 48 31 24 59 45 62
48 3 3 29 23 57 44 57 40 101 46 95 12 -2 -11 1 -15 8 -11 6 4 8 20 5 38 -5
29 -1 35 36 62 81 58 103 71 97 53 -10 -24 24 -11 69 26 48 42 248 191 379
284 127 90 151 117 59 68 -38 -21 -112 -60 -164 -87 -51 -27 -132 -73 -180
-102 -47 -30 -165 -98 -261 -151 -96 -54 -234 -131 -306 -172 -73 -41 -136
-74 -140 -74 -5 0 -18 21 -29 47 -11 26 -35 61 -52 79 -18 19 -33 37 -32 41 0
4 26 27 57 50 31 24 97 74 145 111 88 69 150 98 182 86 21 -8 36 13 29 41 -4
16 8 29 59 63 57 38 157 134 157 151 0 9 207 202 248 230 17 12 32 28 32 34 0
7 29 32 63 57 86 62 270 221 263 227 -6 7 -140 -86 -256 -177 -100 -79 -126
-94 -162 -96 -28 -2 -112 -66 -131 -100 -17 -30 -128 -120 -169 -137 -18 -8
-40 -21 -48 -28 -8 -8 -37 -30 -65 -49 -27 -19 -60 -43 -71 -53 -19 -16 -22
-16 -27 -3 -11 29 -45 16 -125 -49 -53 -42 -86 -78 -98 -104 -14 -30 -30 -46
-64 -62 -25 -11 -59 -32 -77 -45 l-32 -25 -111 113 c-60 62 -110 116 -110 121
0 5 6 15 14 23 8 7 16 19 19 26 3 9 20 -1 48 -27 94 -86 109 -98 109 -88 0 6
-18 33 -41 62 -38 48 -40 53 -29 85 6 19 18 40 26 47 13 11 147 168 312 366
30 36 51 67 48 70 -10 11 -54 -26 -189 -160 -74 -75 -154 -148 -178 -163 -24
-15 -53 -35 -64 -45 -11 -9 -34 -24 -52 -34 l-31 -18 -51 38 c-28 22 -51 43
-51 47 0 9 34 64 165 263 40 61 81 124 91 141 11 18 32 53 48 78 34 55 30 70
-7 24z m-277 -569 c24 -20 24 -21 6 -35 -14 -10 -24 -10 -38 -3 -26 14 -34 39
-17 50 19 12 20 11 49 -12z m-295 -158 c22 -19 40 -39 40 -42 0 -16 -152 -178
-178 -189 -38 -17 -43 -7 -13 25 15 16 26 39 26 53 0 13 7 51 15 83 9 33 14
63 12 67 -3 4 -1 17 4 30 12 30 39 22 94 -27z m95 -87 c0 -8 5 -14 12 -14 7 0
-14 -27 -47 -60 -38 -38 -68 -60 -82 -60 -39 0 -27 32 38 98 57 59 79 69 79
36z m148 -157 c26 -11 112 -104 112 -121 0 -3 -24 -3 -54 0 -30 4 -67 2 -83
-3 -38 -12 -97 -2 -101 18 -3 17 72 119 87 119 5 0 22 -6 39 -13z m675 -412
c-3 -9 -8 -14 -10 -11 -3 3 -2 9 2 15 9 16 15 13 8 -4z m237 -825 c0 -5 -5
-10 -11 -10 -5 0 -7 5 -4 10 3 6 8 10 11 10 2 0 4 -4 4 -10z m140 -311 c0 -11
-4 -17 -10 -14 -5 3 -10 13 -10 21 0 8 5 14 10 14 6 0 10 -9 10 -21z m480
-983 c0 -3 -4 -8 -10 -11 -5 -3 -10 -1 -10 4 0 6 5 11 10 11 6 0 10 -2 10 -4z
m-880 -946 c24 -24 25 -33 4 -51 -8 -7 -24 -29 -34 -48 -10 -20 -35 -52 -55
-71 -30 -29 -38 -32 -46 -20 -22 32 -1 99 48 156 26 29 50 54 55 54 4 0 17 -9
28 -20z m-90 -356 c0 -30 -126 -213 -147 -214 -7 0 -19 13 -28 29 -14 29 -14
31 28 82 23 29 56 67 74 86 33 35 73 44 73 17z"/>
<path d="M5765 6972 c-18 -13 -38 -42 -29 -42 5 0 17 12 27 25 19 26 19 30 2
17z"/>
<path d="M6550 6890 c0 -30 3 -34 25 -38 15 -2 17 0 7 10 -6 6 -12 20 -12 30
0 10 -4 18 -10 18 -5 0 -10 -9 -10 -20z"/>
<path d="M7371 6863 c0 -6 -10 -9 -21 -6 -14 4 -20 0 -20 -10 0 -8 -6 -17 -12
-20 -8 -2 -9 -8 -4 -13 5 -5 11 -4 13 4 3 6 13 12 24 12 13 0 17 -5 12 -17 -5
-12 -2 -15 10 -10 9 3 17 2 17 -3 0 -6 4 -10 9 -10 5 0 7 9 4 20 -3 11 -9 20
-13 20 -5 0 -11 10 -13 23 -2 12 -5 17 -6 10z"/>
<path d="M7535 6770 c3 -5 8 -10 11 -10 2 0 4 5 4 10 0 6 -5 10 -11 10 -5 0
-7 -4 -4 -10z"/>
<path d="M6197 6764 c-11 -12 3 -24 29 -24 16 0 24 5 22 13 -5 13 -40 22 -51
11z"/>
<path d="M7500 6749 c0 -5 5 -7 10 -4 6 3 10 8 10 11 0 2 -4 4 -10 4 -5 0 -10
-5 -10 -11z"/>
<path d="M7514 6613 c5 -39 5 -40 15 -24 10 15 3 51 -10 51 -4 0 -6 -12 -5
-27z"/>
<path d="M7542 6591 c2 -7 7 -12 11 -12 12 1 9 15 -3 20 -7 2 -11 -2 -8 -8z"/>
<path d="M7360 6570 c0 -5 5 -10 10 -10 6 0 10 5 10 10 0 6 -4 10 -10 10 -5 0
-10 -4 -10 -10z"/>
<path d="M7500 6570 c0 -5 5 -10 11 -10 5 0 7 5 4 10 -3 6 -8 10 -11 10 -2 0
-4 -4 -4 -10z"/>
<path d="M6670 6475 c0 -9 -9 -19 -20 -22 -29 -8 -24 -23 9 -29 23 -5 31 -13
33 -33 l3 -26 18 33 c17 32 15 58 -4 47 -5 -4 -14 -3 -20 1 -8 5 -8 8 0 14 9
5 8 10 -4 20 -12 10 -15 10 -15 -5z"/>
<path d="M6660 6390 c0 -5 5 -10 10 -10 6 0 10 5 10 10 0 6 -4 10 -10 10 -5 0
-10 -4 -10 -10z"/>
<path d="M6615 6370 c-3 -5 -1 -17 4 -27 14 -26 24 -57 23 -65 -3 -12 16 -9
23 3 4 6 -1 17 -11 24 -15 11 -16 14 -4 15 12 0 12 2 -2 10 -10 6 -14 18 -11
30 5 20 -11 28 -22 10z"/>
<path d="M4725 6320 c-7 -21 10 -60 25 -60 13 0 40 42 40 62 0 26 -56 25 -65
-2z"/>
<path d="M6600 6321 c0 -5 5 -13 10 -16 6 -3 10 -2 10 4 0 5 -4 13 -10 16 -5
3 -10 2 -10 -4z"/>
<path d="M4630 6211 c0 -24 18 -37 32 -23 8 8 7 16 -2 27 -17 21 -30 19 -30
-4z"/>
<path d="M3512 6068 c-14 -14 -16 -38 -2 -38 9 0 30 31 30 44 0 10 -15 7 -28
-6z"/>
<path d="M8822 5700 c-13 -21 -6 -25 18 -10 10 6 12 12 5 19 -7 7 -14 4 -23
-9z"/>
<path d="M8705 5610 c-3 -5 -1 -10 4 -10 6 0 11 5 11 10 0 6 -2 10 -4 10 -3 0
-8 -4 -11 -10z"/>
<path d="M9371 5455 c-95 -39 -99 -41 -84 -56 10 -10 133 47 163 76 19 20 18
19 -79 -20z"/>
<path d="M8310 5460 c-8 -5 -11 -12 -7 -16 4 -4 13 -2 19 4 15 15 7 24 -12 12z"/>
<path d="M2990 5425 c0 -8 5 -15 10 -15 6 0 10 7 10 15 0 8 -4 15 -10 15 -5 0
-10 -7 -10 -15z"/>
<path d="M8940 5415 c0 -9 5 -15 11 -13 6 2 11 8 11 13 0 5 -5 11 -11 13 -6 2
-11 -4 -11 -13z"/>
<path d="M2910 5350 c0 -5 5 -10 10 -10 6 0 10 5 10 10 0 6 -4 10 -10 10 -5 0
-10 -4 -10 -10z"/>
<path d="M2420 5347 c0 -14 152 -87 181 -87 l32 0 -22 24 c-23 24 -191 80
-191 63z"/>
<path d="M10045 5184 c-27 -8 -67 -19 -87 -25 -22 -5 -38 -16 -38 -24 0 -22
23 -19 108 16 115 45 124 63 17 33z"/>
<path d="M440 5179 c0 -5 1 -9 3 -9 1 0 60 -20 132 -44 133 -46 220 -79 478
-185 134 -55 203 -81 447 -164 121 -41 224 -70 245 -69 11 1 92 -21 180 -47
139 -42 205 -61 364 -101 19 -5 37 -12 40 -17 3 -5 23 -19 44 -32 20 -12 37
-24 37 -26 0 -5 -120 24 -206 50 -44 13 -110 29 -145 34 -35 5 -79 13 -98 17
-53 11 -30 -11 37 -36 31 -12 73 -30 92 -40 58 -31 304 -128 474 -186 87 -30
167 -59 177 -65 21 -11 26 -58 8 -91 -10 -18 -17 -19 -70 -13 -48 6 -66 3
-102 -14 -34 -16 -50 -19 -77 -12 -19 5 -109 12 -200 15 -209 8 -433 26 -440
36 -10 14 -52 22 -143 25 -51 2 -144 8 -207 14 -182 17 -455 24 -593 16 -136
-8 -174 -25 -54 -25 39 0 176 -7 302 -15 127 -7 259 -15 295 -16 36 -2 72 -6
81 -11 9 -4 65 -12 125 -18 138 -14 149 -16 204 -28 25 -5 88 -13 140 -17 52
-3 147 -13 210 -21 111 -15 135 -18 245 -30 65 -7 156 -33 175 -50 8 -8 28
-25 45 -38 l30 -24 -25 -11 c-14 -6 -108 -22 -210 -36 -102 -14 -230 -32 -285
-41 -255 -38 -310 -45 -460 -59 -399 -37 -480 -47 -570 -72 -95 -26 -91 -36
10 -29 241 18 551 26 965 25 250 0 466 0 480 0 37 1 7 -14 -60 -29 -30 -7 -89
-25 -130 -40 -194 -73 -371 -109 -706 -145 -82 -8 -185 -22 -229 -30 -44 -7
-120 -19 -170 -25 -49 -6 -126 -15 -170 -20 -105 -13 -181 -29 -227 -47 -26
-11 -52 -14 -85 -9 -26 4 -75 6 -108 6 -59 -1 -306 -35 -335 -47 -8 -4 -18 -7
-22 -7 -16 -2 -21 -18 -8 -27 12 -9 11 -10 -6 -6 -16 3 -25 -2 -32 -18 l-11
-23 167 -4 c92 -2 226 0 297 4 72 5 243 13 380 18 138 6 291 15 340 20 50 5
124 9 165 9 46 1 102 9 145 22 80 25 99 26 175 10 124 -25 240 -26 225 -1 -6
10 24 50 38 50 5 0 6 -9 2 -19 -7 -23 17 -31 55 -19 19 6 26 16 27 40 3 38 11
47 24 28 7 -12 11 -12 17 -2 7 11 11 10 20 -1 9 -10 8 -18 -3 -33 -8 -10 -14
-23 -14 -29 0 -5 6 -2 14 9 7 10 18 15 24 12 5 -4 21 -4 35 0 22 5 24 9 15 26
-13 24 -7 31 28 34 16 1 22 0 15 -3 -21 -8 -3 -23 28 -23 16 0 36 7 44 16 12
12 16 12 16 2 1 -9 5 -7 14 5 7 9 25 17 40 17 24 0 26 3 21 23 -5 20 -5 20 5
4 11 -18 12 -18 26 0 7 10 14 14 14 8 2 -12 7 -32 16 -62 4 -14 2 -23 -4 -23
-6 0 -8 -10 -5 -21 4 -15 0 -27 -12 -35 -22 -16 -3 -19 26 -4 15 8 19 7 19 -4
0 -10 6 -13 17 -9 13 5 15 2 10 -17 -3 -13 -1 -31 6 -39 10 -12 9 -14 -5 -8
-11 4 -18 2 -18 -5 0 -9 -3 -9 -12 0 -14 14 -28 16 -28 4 0 -4 13 -12 28 -18
20 -8 37 -27 54 -62 l25 -50 -30 -23 c-28 -20 -38 -21 -130 -16 -66 3 -121 1
-161 -8 -180 -39 -331 -78 -411 -105 -221 -76 -212 -74 -255 -60 -75 25 -173
1 -525 -125 -140 -50 -372 -126 -445 -145 -55 -15 -193 -71 -187 -76 2 -3 40
6 83 19 43 14 131 39 194 56 63 18 165 47 225 66 61 18 180 55 265 81 85 25
174 52 197 60 44 13 114 8 230 -18 47 -10 55 -9 72 7 17 15 46 18 188 22 139
4 189 10 288 33 137 32 204 46 325 66 121 19 139 18 149 -8 24 -65 24 -64 -26
-83 -27 -9 -97 -37 -158 -60 -203 -81 -369 -142 -455 -170 -122 -39 -201 -67
-198 -71 5 -4 128 13 198 29 36 8 108 24 160 36 52 12 136 35 187 52 89 29 93
30 127 14 33 -16 37 -15 132 15 53 17 102 29 108 27 15 -6 89 -193 82 -205 -3
-5 -45 -33 -93 -62 -48 -29 -122 -77 -163 -105 -41 -29 -142 -90 -225 -137
-155 -89 -243 -135 -745 -391 -162 -83 -308 -159 -325 -169 l-30 -19 39 7 c21
4 139 56 262 115 123 60 232 109 243 109 10 0 88 34 172 76 233 116 339 164
360 164 11 0 27 4 37 10 9 5 43 21 75 35 47 20 62 22 77 13 15 -10 25 -9 46 2
15 8 35 14 44 12 19 -3 198 82 273 130 59 38 65 35 115 -49 90 -150 202 -301
295 -399 32 -34 38 -46 31 -65 -4 -13 -8 -32 -9 -42 -3 -27 -51 -72 -151 -142
-87 -61 -171 -141 -160 -152 3 -3 22 8 43 25 50 39 262 176 327 212 l52 27 37
-39 c45 -47 58 -44 27 6 -39 64 -2 38 108 -74 59 -60 112 -110 119 -110 6 0
13 -9 16 -20 4 -14 -5 -28 -31 -49 -91 -72 -163 -94 -215 -69 -29 15 -70 -17
-63 -47 3 -13 2 -27 -4 -30 -5 -3 -10 -16 -10 -28 0 -14 -30 -52 -85 -107 -78
-78 -100 -110 -76 -110 5 0 22 10 38 23 48 39 142 97 157 97 7 0 19 7 26 15 7
8 19 15 26 15 20 0 94 50 94 64 0 6 28 32 63 56 34 25 74 58 90 74 l27 28 78
-73 c42 -41 117 -99 165 -129 49 -30 103 -66 121 -80 50 -38 203 -116 212
-108 10 11 -17 40 -32 34 -18 -7 -59 28 -59 51 0 10 -7 18 -15 18 -17 0 -45
33 -36 42 3 3 13 2 23 -2 10 -5 24 -7 31 -6 6 1 12 -5 12 -14 0 -20 46 -20 58
1 6 11 11 13 16 5 4 -6 17 -11 29 -11 16 0 18 -3 9 -9 -16 -10 -12 -43 6 -49
6 -2 12 4 12 12 0 12 7 15 27 12 37 -7 49 -22 27 -34 -11 -5 -27 -8 -37 -7 -9
2 -15 0 -12 -5 2 -4 24 -7 47 -7 23 0 44 -5 46 -12 2 -6 12 -11 23 -11 12 0
16 -5 13 -15 -4 -8 -2 -15 2 -16 5 0 24 -2 42 -4 l33 -3 -41 38 c-24 22 -48
36 -58 34 -11 -3 -23 6 -34 26 -9 16 -24 30 -32 30 -8 0 -17 6 -19 13 -4 9 -8
8 -16 -3 -9 -13 -11 -13 -11 1 0 20 -35 53 -48 45 -13 -8 -365 237 -405 282
-10 11 -30 23 -44 27 l-26 6 25 27 c14 15 29 34 34 43 5 10 63 73 129 141 164
170 171 179 112 139 -27 -18 -64 -47 -83 -63 -18 -16 -75 -60 -125 -98 -87
-64 -119 -76 -119 -44 0 8 -9 14 -20 14 -11 0 -20 4 -20 8 0 5 -45 54 -100
111 l-101 103 82 61 c46 34 105 80 133 102 28 23 121 90 206 149 199 140 211
149 205 154 -2 2 -44 -20 -92 -49 -48 -29 -106 -62 -128 -72 -22 -11 -85 -48
-140 -82 -55 -34 -119 -72 -142 -84 -24 -12 -43 -28 -43 -36 0 -7 -5 -17 -12
-21 -7 -4 -8 -3 -4 4 4 7 1 12 -9 12 -11 0 -15 -5 -11 -15 3 -8 1 -15 -4 -15
-6 0 -10 -10 -11 -22 0 -13 -3 -17 -6 -10 -8 19 -22 14 -16 -7 6 -22 -45 -67
-60 -52 -6 6 -22 4 -43 -5 -23 -10 -33 -11 -32 -3 2 6 -7 13 -19 15 -25 4 -30
-5 -11 -24 9 -9 8 -12 -4 -12 -9 0 -19 8 -21 18 -4 13 -5 12 -6 -5 0 -12 4
-23 11 -25 8 -3 8 -7 2 -11 -22 -13 -135 77 -187 150 -20 28 -37 54 -37 57 0
3 14 6 31 6 25 0 41 -11 79 -52 l48 -53 25 24 c14 13 30 20 36 16 7 -3 11 2
11 14 0 30 11 52 23 44 6 -3 7 -1 3 6 -4 6 -12 8 -18 5 -8 -5 -9 -1 -5 10 4
10 7 20 7 22 0 2 7 4 15 4 8 0 18 16 24 36 12 44 4 65 -65 159 -28 39 -74 103
-102 144 l-51 74 187 93 c183 91 253 134 222 133 -8 0 -58 -18 -110 -40 -163
-69 -243 -96 -298 -101 l-53 -5 -22 41 c-23 43 -68 168 -63 173 15 15 306 133
418 169 184 60 280 95 275 101 -6 5 -97 -12 -252 -48 -357 -83 -538 -121 -606
-126 l-76 -6 -7 64 c-3 35 -9 90 -12 122 l-7 58 27 -7 c14 -3 26 -2 26 2 0 13
-35 102 -43 110 -4 4 -7 16 -7 26 0 20 28 34 80 40 l33 3 38 -125 c57 -191 58
-191 52 -44 -3 72 -3 146 1 165 l6 34 132 24 c166 29 196 44 71 35 -85 -6 -93
-4 -125 17 -18 13 -35 25 -37 26 -1 1 5 11 15 21 16 17 45 23 199 36 99 9 205
23 235 30 30 8 96 17 145 21 125 8 238 27 222 37 -33 21 -403 -3 -495 -33 -58
-19 -102 -19 -102 1 0 16 31 40 53 41 12 0 31 5 42 10 21 10 -159 4 -223 -7
l-32 -6 4 73 c2 41 8 93 11 117 5 27 4 42 -3 42 -6 0 -13 19 -17 43 -4 23 -12
45 -17 48 -6 4 -6 28 -1 67 6 34 6 67 2 73 -6 11 4 43 37 116 11 24 19 30 34
26 11 -3 20 -1 21 3 0 5 3 28 5 52 5 41 4 43 -16 32 -11 -6 -18 -15 -15 -20 3
-4 -4 -6 -16 -3 -15 4 -22 0 -26 -15 -2 -11 -15 -23 -26 -26 -25 -6 -68 -105
-73 -165 -1 -20 -12 -56 -23 -81 -25 -54 -27 -117 -5 -141 14 -15 14 -21 1
-51 -30 -69 -37 -89 -37 -106 0 -29 -55 -82 -79 -75 -18 4 -21 0 -27 -35 -7
-45 -33 -76 -56 -67 -23 9 -49 75 -47 120 1 22 -4 60 -11 85 -6 25 -14 57 -17
73 -6 28 12 83 34 105 17 18 17 77 -1 91 -33 27 -40 149 -16 266 17 81 30 173
40 280 6 55 13 119 16 141 4 26 2 44 -5 49 -18 10 -63 17 -57 7 2 -4 0 -14 -5
-22 -8 -13 -13 -11 -29 8 l-19 23 -6 -23 c-5 -19 -12 -23 -41 -23 -42 2 -55
13 -31 27 14 7 16 13 6 24 -6 7 -16 11 -22 7 -5 -3 -7 -2 -4 4 3 5 -11 28 -33
50 -46 49 -106 63 -156 38 -17 -8 -61 -16 -97 -17 -37 -1 -67 -6 -67 -10 0
-12 48 -31 132 -53 65 -17 67 -19 62 -44 -10 -42 -19 -46 -75 -33 -28 7 -66
12 -85 12 -29 0 -34 -4 -34 -22 0 -46 -9 -48 -115 -21 -55 13 -158 38 -230 53
-71 16 -155 36 -185 44 -137 38 -221 59 -348 86 -139 30 -304 75 -467 129 -49
16 -144 46 -210 66 -66 20 -154 47 -195 60 -76 25 -238 71 -297 85 -19 4 -33
4 -33 -1z m2630 -489 c0 -5 -4 -10 -10 -10 -5 0 -10 5 -10 10 0 6 5 10 10 10
6 0 10 -4 10 -10z m-460 -1226 c0 -8 -4 -12 -10 -9 -5 3 -10 10 -10 16 0 5 5
9 10 9 6 0 10 -7 10 -16z m-155 -74 c3 -6 -1 -13 -10 -16 -19 -8 -30 0 -20 15
8 14 22 14 30 1z m879 -622 c24 -53 56 -138 56 -150 0 -7 -5 -5 -12 4 -7 8
-21 20 -31 25 -22 11 -127 113 -127 123 0 5 40 18 92 29 4 0 14 -14 22 -31z
m114 -419 c52 -69 52 -70 41 -111 l-11 -42 -45 49 c-65 72 -77 98 -61 140 6
19 14 35 18 35 3 -1 29 -32 58 -71z"/>
<path d="M9382 5105 c-18 -8 -31 -19 -27 -25 7 -11 65 18 65 32 0 10 2 10 -38
-7z"/>
<path d="M9676 5075 c-20 -14 -43 -25 -51 -25 -8 0 -17 -4 -20 -10 -3 -5 -16
-10 -28 -10 -12 -1 -37 -9 -56 -19 -28 -15 -31 -19 -16 -25 17 -6 267 68 292
87 21 16 4 27 -41 27 -30 0 -55 -8 -80 -25z"/>
<path d="M1755 5021 c15 -14 170 -68 186 -64 30 8 22 19 -23 33 -53 16 -170
39 -163 31z"/>
<path d="M8510 5010 c0 -5 4 -10 9 -10 6 0 13 5 16 10 3 6 -1 10 -9 10 -9 0
-16 -4 -16 -10z"/>
<path d="M8505 4981 c-3 -5 -1 -12 4 -15 5 -3 11 1 15 9 6 16 -9 21 -19 6z"/>
<path d="M2055 4932 c16 -17 184 -71 270 -87 94 -18 85 -17 85 -7 0 11 -57 38
-100 47 -19 4 -50 16 -69 28 -25 15 -57 22 -115 25 -55 3 -78 1 -71 -6z"/>
<path d="M2935 4840 c-3 -5 0 -19 8 -30 14 -19 14 -19 13 10 -1 30 -10 38 -21
20z"/>
<path d="M8621 4761 c0 -7 -7 -11 -15 -8 -10 4 -8 -10 9 -56 13 -38 28 -63 38
-65 10 -2 17 1 17 7 0 6 -5 11 -10 11 -6 0 -8 11 -4 25 4 17 1 32 -9 43 -8 9
-17 26 -20 37 -2 11 -5 14 -6 6z"/>
<path d="M9450 4416 c-55 -8 -75 -15 -75 -26 0 -11 9 -14 30 -12 45 4 135 33
135 43 0 5 -3 8 -7 8 -5 -1 -42 -6 -83 -13z"/>
<path d="M3114 4339 c-10 -17 13 -36 27 -22 12 12 4 33 -11 33 -5 0 -12 -5
-16 -11z"/>
<path d="M3440 4331 c0 -10 19 -25 25 -20 1 2 -3 10 -11 17 -8 7 -14 8 -14 3z"/>
<path d="M3600 4308 c0 -6 3 -8 7 -5 3 4 12 2 20 -4 8 -7 13 -8 13 -1 0 5 -7
13 -16 16 -22 8 -24 8 -24 -6z"/>
<path d="M2488 4244 c53 -14 78 -11 67 7 -4 5 -32 9 -63 8 l-57 0 53 -15z"/>
<path d="M3130 4250 c0 -5 5 -10 10 -10 6 0 10 5 10 10 0 6 -4 10 -10 10 -5 0
-10 -4 -10 -10z"/>
<path d="M9667 3574 c-4 -4 -7 -14 -7 -23 0 -11 3 -12 11 -4 6 6 10 16 7 23
-2 6 -7 8 -11 4z"/>
<path d="M9590 3540 c0 -5 5 -10 10 -10 6 0 10 5 10 10 0 6 -4 10 -10 10 -5 0
-10 -4 -10 -10z"/>
<path d="M9625 3524 c-18 -14 -18 -15 13 -12 33 2 42 12 19 21 -7 3 -22 -2
-32 -9z"/>
<path d="M9705 3521 c-2 -3 14 -14 36 -23 44 -18 48 -17 21 10 -18 18 -49 25
-57 13z"/>
<path d="M9790 3510 c0 -5 5 -10 11 -10 5 0 7 5 4 10 -3 6 -8 10 -11 10 -2 0
-4 -4 -4 -10z"/>
<path d="M9660 3492 c0 -5 7 -9 15 -9 8 0 12 4 9 9 -3 4 -9 8 -15 8 -5 0 -9
-4 -9 -8z"/>
<path d="M9825 3490 c3 -5 11 -10 16 -10 6 0 7 5 4 10 -3 6 -11 10 -16 10 -6
0 -7 -4 -4 -10z"/>
<path d="M2620 3408 c0 -4 9 -8 19 -8 11 0 27 -3 35 -6 11 -4 15 -2 11 8 -6
15 -65 21 -65 6z"/>
<path d="M2510 3380 c-13 -8 -12 -10 3 -10 9 0 17 5 17 10 0 12 -1 12 -20 0z"/>
<path d="M2231 3324 c0 -11 3 -14 6 -6 3 7 2 16 -1 19 -3 4 -6 -2 -5 -13z"/>
<path d="M238 3302 c-7 -10 -19 -22 -26 -26 -11 -7 -12 -4 -3 12 9 17 8 19
-10 15 -27 -7 -20 -38 9 -37 12 0 22 -5 22 -13 0 -7 10 -13 23 -13 30 0 40 10
27 26 -6 6 -10 16 -9 20 6 36 -12 45 -33 16z"/>
<path d="M2695 3259 c-10 -15 3 -25 16 -12 7 7 7 13 1 17 -6 3 -14 1 -17 -5z"/>
<path d="M125 3250 c-3 -5 -2 -10 4 -10 5 0 13 5 16 10 3 6 2 10 -4 10 -5 0
-13 -4 -16 -10z"/>
<path d="M11170 2830 c-18 -11 46 -37 138 -55 46 -10 85 -15 88 -12 14 14
-206 79 -226 67z"/>
<path d="M11500 2736 c13 -17 106 -40 135 -34 24 4 -90 48 -125 48 -18 0 -20
-3 -10 -14z"/>
<path d="M9980 2682 c0 -17 52 -32 123 -37 l72 -5 -70 24 c-72 25 -125 33
-125 18z"/>
<path d="M1915 2516 c-27 -14 -47 -25 -43 -25 22 -3 109 23 119 35 18 22 -18
18 -76 -10z"/>
<path d="M3886 2303 c-12 -13 -6 -53 9 -53 9 0 15 9 15 24 0 26 -12 40 -24 29z"/>
<path d="M8880 2124 c-11 -12 -11 -18 2 -31 15 -14 17 -13 27 6 19 35 -4 56
-29 25z"/>
<path d="M3690 1951 c0 -5 5 -13 10 -16 6 -3 10 -2 10 4 0 5 -4 13 -10 16 -5
3 -10 2 -10 -4z"/>
<path d="M3309 1864 c-7 -8 -26 -22 -42 -30 -38 -20 -27 -30 15 -14 36 15 68
38 68 52 0 14 -27 9 -41 -8z"/>
<path d="M7340 1169 c0 -5 5 -7 10 -4 6 3 10 8 10 11 0 2 -4 4 -10 4 -5 0 -10
-5 -10 -11z"/>
<path d="M8716 1071 c-16 -18 -16 -21 3 -60 12 -22 21 -46 21 -53 0 -7 26 -28
56 -47 31 -18 81 -54 112 -80 32 -26 69 -54 83 -62 106 -58 134 -75 440 -280
159 -106 338 -213 345 -207 3 4 -131 106 -291 223 -66 48 -122 93 -125 100 -8
21 -193 185 -230 205 -19 10 -44 28 -55 40 -11 13 -56 47 -100 76 -44 29 -105
71 -135 93 -96 70 -105 73 -124 52z"/>
<path d="M7209 1053 c-12 -15 -12 -16 4 -10 10 4 25 7 33 7 9 0 12 5 9 10 -9
15 -31 12 -46 -7z"/>
<path d="M4610 1020 c19 -13 30 -13 30 0 0 6 -10 10 -22 10 -19 0 -20 -2 -8
-10z"/>
<path d="M7316 1021 c-7 -11 3 -41 13 -41 10 0 30 37 24 44 -9 9 -31 7 -37 -3z"/>
<path d="M7218 983 c-19 -5 -25 -23 -9 -23 17 0 41 12 41 21 0 9 -4 10 -32 2z"/>
<path d="M3252 923 c-85 -71 -192 -155 -384 -301 -81 -62 -149 -120 -153 -130
-3 -9 -36 -42 -72 -72 -163 -136 -224 -190 -306 -273 -87 -87 -108 -120 -49
-78 17 12 33 21 37 21 3 0 52 42 109 93 127 115 153 137 195 167 19 14 66 49
105 78 39 28 76 52 83 52 11 0 119 82 200 151 12 10 42 30 65 45 46 29 140 99
198 148 38 32 83 118 74 141 -10 25 -30 17 -102 -42z"/>
<path d="M4740 940 c0 -5 5 -10 10 -10 6 0 10 5 10 10 0 6 -4 10 -10 10 -5 0
-10 -4 -10 -10z"/>
<path d="M7265 930 c-3 -5 -1 -10 4 -10 6 0 11 5 11 10 0 6 -2 10 -4 10 -3 0
-8 -4 -11 -10z"/>
<path d="M4820 902 c0 -5 9 -12 21 -15 13 -3 19 -1 16 6 -5 15 -37 22 -37 9z"/>
</g>
</svg>
